<?xml version="1.0" encoding="iso-8859-1"?>
<!-- Generator: Adobe Illustrator 19.0.0, SVG Export Plug-In . SVG Version: 6.00 Build 0)  -->
<svg version="1.1" id="Layer_1" xmlns="http://www.w3.org/2000/svg" xmlns:xlink="http://www.w3.org/1999/xlink" x="0px" y="0px"
	 viewBox="0 0 512 512" style="enable-background:new 0 0 512 512;" xml:space="preserve">
<g>
	<g>
		<path d="M493.397,18.965c-0.064-0.064-0.064-0.128-0.128-0.192c-5.909-5.952-12.821-10.539-20.331-13.717
			c-0.021,0-0.043-0.021-0.043-0.021c-3.328-1.387-6.784-2.389-10.304-3.2c-0.619-0.149-1.173-0.405-1.771-0.533
			C456.64,0.448,452.352,0,448,0H256H64C28.715,0,0,28.715,0,64v384c0,35.285,28.715,64,64,64h192h192
			c4.352,0,8.619-0.448,12.779-1.301c0.917-0.171,1.771-0.576,2.667-0.811c3.2-0.789,6.357-1.643,9.387-2.901
			c0.64-0.277,1.195-0.683,1.813-0.981c3.136-1.451,6.229-2.987,9.088-4.949c0.469-0.299,0.853-0.725,1.323-1.067
			c2.859-2.048,5.653-4.203,8.192-6.741c0.064-0.043,0.064-0.128,0.128-0.171C504.875,481.493,512,465.579,512,448V64
			C512,46.443,504.875,30.549,493.397,18.965z M42.667,64c0-11.776,9.557-21.333,21.333-21.333h140.501L42.667,204.501V64z
			 M64,469.334c-11.776-0.001-21.333-9.558-21.333-21.334V307.499l161.835,161.835H64z M469.333,439.168L286.165,256L469.333,72.832
			V439.168z"/>
	</g>
</g>
<g>
</g>
<g>
</g>
<g>
</g>
<g>
</g>
<g>
</g>
<g>
</g>
<g>
</g>
<g>
</g>
<g>
</g>
<g>
</g>
<g>
</g>
<g>
</g>
<g>
</g>
<g>
</g>
<g>
</g>
</svg>
