<?xml version="1.0" encoding="iso-8859-1"?>
<!-- Generator: Adobe Illustrator 19.0.0, SVG Export Plug-In . SVG Version: 6.00 Build 0)  -->
<svg version="1.1" id="Layer_1" xmlns="http://www.w3.org/2000/svg" xmlns:xlink="http://www.w3.org/1999/xlink" x="0px" y="0px"
	 viewBox="0 0 473.654 473.654" style="enable-background:new 0 0 473.654 473.654;" xml:space="preserve">
<circle style="fill:#EDC92C;" cx="236.827" cy="236.827" r="236.827"/>
<path style="fill:#FFFFFF;" d="M404.764,207.969c-83.101,0-166.202,0-249.302,0c-0.673,0-1.313,0.06-1.96,0.094
	c30.582-28.469,61.161-56.943,91.743-85.416c26.484-24.655-13.425-64.089-39.883-39.46c-47.657,44.37-95.318,88.74-142.975,133.114
	c-10.938,10.187-10.635,29.569,0.213,39.669c47.657,44.366,95.314,88.736,142.971,133.103c26.405,24.58,66.015-15.156,39.46-39.883
	c-30.504-28.398-61.007-56.793-91.511-85.191c0.512,0.022,1.006,0.075,1.533,0.075c83.101,0,166.202,0,249.302,0
	C440.582,264.077,440.899,207.969,404.764,207.969z"/>
<g>
</g>
<g>
</g>
<g>
</g>
<g>
</g>
<g>
</g>
<g>
</g>
<g>
</g>
<g>
</g>
<g>
</g>
<g>
</g>
<g>
</g>
<g>
</g>
<g>
</g>
<g>
</g>
<g>
</g>
</svg>
