<?xml version="1.0" encoding="iso-8859-1"?>
<!-- Generator: Adobe Illustrator 19.0.0, SVG Export Plug-In . SVG Version: 6.00 Build 0)  -->
<svg version="1.1" id="Layer_1" xmlns="http://www.w3.org/2000/svg" xmlns:xlink="http://www.w3.org/1999/xlink" x="0px" y="0px"
	 viewBox="0 0 512 512" style="enable-background:new 0 0 512 512;" xml:space="preserve">
<g>
	<g>
		<path d="M448,0H256H64c-4.352,0-8.619,0.448-12.8,1.301c-0.789,0.149-1.493,0.491-2.261,0.683
			c-3.349,0.811-6.635,1.707-9.792,3.051c-0.363,0.149-0.661,0.384-1.024,0.533c-7.104,3.157-13.717,7.509-19.392,13.184
			c-0.064,0.064-0.085,0.171-0.149,0.235C7.104,30.571,0,46.464,0,64v384c0,17.536,7.104,33.429,18.581,45.013
			c0.064,0.064,0.085,0.171,0.149,0.235c5.717,5.717,12.373,10.091,19.541,13.269c0.299,0.128,0.576,0.32,0.875,0.448
			c3.157,1.344,6.464,2.261,9.813,3.072c0.768,0.171,1.472,0.512,2.24,0.661C55.381,511.552,59.648,512,64,512h192h192
			c35.285,0,64-28.715,64-64V64C512,28.715,483.285,0,448,0z M42.667,439.168V72.832L225.835,256L42.667,439.168z M448,42.667
			c11.755,0,21.333,9.557,21.333,21.333v140.501L307.499,42.667H448z M448,469.333H307.499l161.835-161.835V448h0
			C469.333,459.776,459.754,469.333,448,469.333z"/>
	</g>
</g>
<g>
</g>
<g>
</g>
<g>
</g>
<g>
</g>
<g>
</g>
<g>
</g>
<g>
</g>
<g>
</g>
<g>
</g>
<g>
</g>
<g>
</g>
<g>
</g>
<g>
</g>
<g>
</g>
<g>
</g>
</svg>
